<svg xmlns="http://www.w3.org/2000/svg" width="512" height="512" viewBox="0 0 484.684 484.684"><g fill="#FFF"><path d="M265.899 102.96a32.336 32.336 0 0 0-24.581-11.341 32.315 32.315 0 0 0-24.579 11.341L78.837 264.601a44.61 44.61 0 0 0-10.062 36.348l25.033 149.315c2.611 15.567 16.082 26.878 31.865 26.878h120.269c-.036-.565.046-.775.046-1.27V367.454c0-7.038 5.6-12.821 12.638-12.821h57.94c7.044 0 12.792 5.784 12.792 12.821v109.688h27.607c15.785 0 29.259-11.311 31.866-26.878l25.032-149.356a44.5 44.5 0 0 0-10.066-36.307L265.899 102.96zm-57.35 303.012c0 7.044-5.712 12.756-12.75 12.756h-44.261c-7.044 0-12.75-5.712-12.75-12.756v-44.261c0-7.038 5.707-12.75 12.75-12.75h44.261c7.038 0 12.75 5.712 12.75 12.75v44.261z"/><path d="M477.804 227.033L306.504 36.5c-16.601-18.457-40.409-29.294-65.18-28.95-24.822.063-48.533 10.725-65.036 29.264L6.793 227.131c-9.855 11.074-8.869 28.029 2.19 37.886a26.744 26.744 0 0 0 17.84 6.792c7.383 0 14.745-3.033 20.046-8.992l169.5-190.221c6.37-7.157 15.506-11.192 25.083-11.192h.082c9.548 0 18.679 3.969 25.063 11.069L437.902 262.96c9.902 11.039 26.884 11.907 37.891 1.99 11.019-9.902 11.918-26.889 2.011-37.917z"/></g></svg>