<svg xmlns="http://www.w3.org/2000/svg" viewBox="0 0 55 55"><path d="M20 6.263l15 3.529v40.016l-15-2.647V6.263m-.999-2.262a1 1 0 0 0-1.001 1v43c0 .485.348.9.826.984l17 3a1.004 1.004 0 0 0 .817-.218c.226-.19.357-.471.357-.766v-42c0-.464-.319-.867-.771-.974l-17-4a.985.985 0 0 0-.228-.026z"/><path d="M54.584 2.189a.993.993 0 0 0-.901-.137l-18 6a1 1 0 0 0-.683.949v42a.998.998 0 0 0 1.362.932l18-7a1 1 0 0 0 .638-.932v-41a1 1 0 0 0-.416-.812zM18.783 4.024l-18 4A1.002 1.002 0 0 0 0 9.001v43a.999.999 0 0 0 1.217.977l18-4c.457-.103.783-.509.783-.977v-43a.999.999 0 0 0-1.217-.977z"/></svg>