<svg xmlns="http://www.w3.org/2000/svg" width="512" height="512" viewBox="0 0 442.762 442.762"><path d="M237.082 31.617c-113.596 0-205.68 84.96-205.68 189.764 0 28.473 6.809 55.473 18.986 79.711L1.736 389.064a13.883 13.883 0 0 0 15.824 20.108l106.506-29.232c32.432 19.719 71.266 31.205 113.016 31.205 113.594 0 205.68-84.959 205.68-189.764 0-104.804-92.086-189.764-205.68-189.764zm-.345 287.256c-11.227 0-20.356-9.132-20.356-20.357s9.131-20.357 20.356-20.357c11.227 0 20.357 9.133 20.357 20.357.002 11.224-9.129 20.357-20.357 20.357zm21.327-96.839c-2.674 1.828-4.522 3.175-5.522 4.021v21.272c0 8.712-7.091 15.8-15.802 15.8-8.715 0-15.802-7.088-15.802-15.8v-22.918c0-15.281 11.152-22.903 19.296-28.467 8.789-6.005 14.595-9.972 14.595-22.361 0-9.975-8.113-18.09-18.089-18.09-9.977 0-18.089 8.115-18.089 18.09 0 8.713-7.09 15.801-15.803 15.801-8.713 0-15.803-7.088-15.803-15.801 0-27.4 22.293-49.692 49.694-49.692 27.398 0 49.691 22.292 49.691 49.692.002 29.072-17.756 41.206-28.366 48.453z" fill="#FFF"/></svg>